<?xml version="1.0" encoding="UTF-8"?>
<svg width="81px" height="81px" viewBox="0 0 81 81" version="1.1" xmlns="http://www.w3.org/2000/svg" xmlns:xlink="http://www.w3.org/1999/xlink">
    <!-- Generator: Sketch 55.2 (78181) - https://sketchapp.com -->
    <title>Group 15</title>
    <desc>Created with Sketch.</desc>
    <g id="Page-1" stroke="none" stroke-width="1" fill="none" fill-rule="evenodd">
        <g id="Group-15" transform="translate(-20.000000, -7.000000)">
            <g id="Group-13" transform="translate(7.000000, 7.000000)">
                <g id="Group-12" transform="translate(13.000000, 0.000000)" fill="#FFD700" fill-rule="nonzero">
                    <polygon id="Path" points="43 24 37 24 37 46.5461313 54.1225296 58 57 52.5397501 43 43.1651157"></polygon>
                    <path d="M40.5095993,1.0095387e-06 C24.1274791,-0.0036420968 9.35659102,9.86238594 3.08574158,24.9967948 C-3.18510787,40.1312037 0.279276827,57.5529055 11.8631854,69.1368143 C23.4470939,80.7207232 40.8687953,84.185108 56.0032038,77.9142583 C71.1376123,71.6434087 81.0036401,56.8725203 81,40.4903997 C80.9950221,18.1302311 62.8697673,0.00497591913 40.5095993,1.0095387e-06 Z M40.5095993,71.9799293 C27.772455,71.9835724 16.2874657,64.3137062 11.4106462,52.5471648 C6.53382669,40.7806235 9.2257126,27.2349384 18.2309453,18.2271282 C27.236178,9.21931796 40.7810918,6.52355581 52.5490279,11.3970081 C64.316964,16.2704604 71.9901169,27.7532546 71.9901169,40.4903997 C71.9653175,57.8677872 57.8869785,71.9501558 40.5095993,71.9799293 L40.5095993,71.9799293 Z" id="Shape"></path>
                </g>
            </g>
        </g>
    </g>
</svg>